<?xml version="1.0" encoding="UTF-8" standalone="no"?>
<!DOCTYPE svg PUBLIC "-//W3C//DTD SVG 1.1//EN" "http://www.w3.org/Graphics/SVG/1.1/DTD/svg11.dtd">
<svg width="100%" height="100%" viewBox="0 0 16 16" version="1.1" xmlns="http://www.w3.org/2000/svg" xmlns:xlink="http://www.w3.org/1999/xlink" xml:space="preserve" xmlns:serif="http://www.serif.com/" style="fill-rule:evenodd;clip-rule:evenodd;stroke-linejoin:round;stroke-miterlimit:2;">
    <path d="M9.069,8.606C8.964,9.509 8.631,10.205 8.07,10.695C7.51,11.185 6.764,11.43 5.835,11.43C4.827,11.43 4.019,11.069 3.412,10.346C2.805,9.624 2.501,8.657 2.501,7.446L2.501,6.626C2.501,5.833 2.642,5.136 2.926,4.534C3.209,3.932 3.61,3.47 4.13,3.148C4.649,2.826 5.251,2.665 5.934,2.665C6.841,2.665 7.567,2.918 8.114,3.424C8.661,3.929 8.979,4.63 9.069,5.524L7.938,5.524C7.841,4.845 7.629,4.352 7.303,4.048C6.976,3.743 6.52,3.591 5.934,3.591C5.216,3.591 4.652,3.856 4.244,4.387C3.836,4.919 3.632,5.675 3.632,6.655L3.632,7.481C3.632,8.407 3.825,9.143 4.212,9.69C4.598,10.237 5.139,10.511 5.835,10.511C6.46,10.511 6.939,10.369 7.273,10.086C7.607,9.803 7.829,9.309 7.938,8.606L9.069,8.606Z" style="fill-rule:nonzero;"/>
    <path d="M9.844,13.335L9.844,8.281L11.271,8.281C11.71,8.281 12.099,8.378 12.437,8.573C12.775,8.767 13.036,9.044 13.22,9.402C13.404,9.761 13.497,10.173 13.499,10.638L13.499,10.961C13.499,11.438 13.407,11.855 13.223,12.214C13.039,12.573 12.777,12.848 12.435,13.04C12.094,13.232 11.696,13.331 11.243,13.335L9.844,13.335ZM10.51,8.829L10.51,12.79L11.212,12.79C11.725,12.79 12.125,12.631 12.411,12.311C12.697,11.992 12.84,11.537 12.84,10.947L12.84,10.652C12.84,10.078 12.705,9.632 12.435,9.314C12.166,8.996 11.783,8.834 11.288,8.829L10.51,8.829Z" style="fill-rule:nonzero;"/>
</svg>
