<?xml version="1.0" encoding="UTF-8" standalone="no"?>
<!DOCTYPE svg PUBLIC "-//W3C//DTD SVG 1.1//EN" "http://www.w3.org/Graphics/SVG/1.1/DTD/svg11.dtd">
<svg width="100%" height="100%" viewBox="0 0 16 16" version="1.1" xmlns="http://www.w3.org/2000/svg" xmlns:xlink="http://www.w3.org/1999/xlink" xml:space="preserve" xmlns:serif="http://www.serif.com/" style="fill-rule:evenodd;clip-rule:evenodd;stroke-linejoin:round;stroke-miterlimit:2;">
    <path d="M8,1.333C11.68,1.333 14.667,4.32 14.667,8C14.667,11.68 11.68,14.667 8,14.667C4.32,14.667 1.333,11.68 1.333,8C1.333,4.32 4.32,1.333 8,1.333ZM7.13,5.12L7.13,8.213C7.13,8.693 7.52,9.082 8,9.082C8.48,9.082 8.87,8.693 8.87,8.213L8.87,5.12C8.87,4.64 8.48,4.251 8,4.251C7.52,4.251 7.13,4.64 7.13,5.12ZM8.007,10.152C7.51,10.152 7.106,10.556 7.106,11.053C7.106,11.551 7.51,11.955 8.007,11.955C8.504,11.955 8.908,11.551 8.908,11.053C8.908,10.556 8.504,10.152 8.007,10.152Z"/>
</svg>
