<?xml version="1.0" encoding="UTF-8" standalone="no"?>
<!DOCTYPE svg PUBLIC "-//W3C//DTD SVG 1.1//EN" "http://www.w3.org/Graphics/SVG/1.1/DTD/svg11.dtd">
<svg width="100%" height="100%" viewBox="0 0 16 16" version="1.1" xmlns="http://www.w3.org/2000/svg" xmlns:xlink="http://www.w3.org/1999/xlink" xml:space="preserve" xmlns:serif="http://www.serif.com/" style="fill-rule:evenodd;clip-rule:evenodd;stroke-linecap:round;stroke-linejoin:round;">
    <g transform="matrix(-0.666667,-8.16431e-17,8.16431e-17,-0.666667,16,12)">
        <path d="M12,3L12,15" style="fill:none;fill-rule:nonzero;stroke:black;stroke-width:1.25px;"/>
    </g>
    <g transform="matrix(-0.666667,-8.16431e-17,8.16431e-17,-0.666667,16,12)">
        <path d="M8,11L12,15L16,11" style="fill:none;fill-rule:nonzero;stroke:black;stroke-width:1.25px;"/>
    </g>
    <g transform="matrix(0.666667,0,0,0.666667,0,0)">
        <path d="M6.5,5L4,5C2.903,5 2,5.903 2,7L2,17C2,18.097 2.903,19 4,19L20,19C21.097,19 22,18.097 22,17L22,7C22,5.903 21.097,5 20,5L17.5,5" style="fill:none;fill-rule:nonzero;stroke:black;stroke-width:1.25px;"/>
    </g>
</svg>
