<?xml version="1.0" encoding="UTF-8" standalone="no"?>
<!DOCTYPE svg PUBLIC "-//W3C//DTD SVG 1.1//EN" "http://www.w3.org/Graphics/SVG/1.1/DTD/svg11.dtd">
<svg width="100%" height="100%" viewBox="0 0 16 16" version="1.1" xmlns="http://www.w3.org/2000/svg" xmlns:xlink="http://www.w3.org/1999/xlink" xml:space="preserve" xmlns:serif="http://www.serif.com/" style="fill-rule:evenodd;clip-rule:evenodd;stroke-linecap:round;stroke-linejoin:round;">
    <path d="M9.233,14.667L12,14.667C12.731,14.667 13.333,14.065 13.333,13.333L13.333,5.333C13.333,4.98 13.193,4.641 12.943,4.391L10.276,1.724C10.026,1.474 9.687,1.333 9.333,1.333L4,1.333C3.269,1.333 2.667,1.935 2.667,2.667L2.667,7.067" style="fill:none;fill-rule:nonzero;stroke:#000;stroke-width:0.83px;"/>
    <path d="M9.333,1.333L9.333,4.667C9.333,5.032 9.634,5.333 10,5.333L13.333,5.333" style="fill:none;fill-rule:nonzero;stroke:#000;stroke-width:0.83px;"/>
    <path d="M2.203,13.02L2.819,12.765" style="fill:none;fill-rule:nonzero;stroke:#2d2dbd;stroke-width:0.83px;"/>
    <path d="M2.819,11.235L2.203,10.979" style="fill:none;fill-rule:nonzero;stroke:#2d2dbd;stroke-width:0.83px;"/>
    <path d="M3.901,10.152L3.646,9.537" style="fill:none;fill-rule:nonzero;stroke:#2d2dbd;stroke-width:0.83px;"/>
    <path d="M3.901,13.848L3.646,14.464" style="fill:none;fill-rule:nonzero;stroke:#2d2dbd;stroke-width:0.83px;"/>
    <path d="M5.432,10.152L5.687,9.537" style="fill:none;fill-rule:nonzero;stroke:#2d2dbd;stroke-width:0.83px;"/>
    <path d="M5.687,14.464L5.432,13.848" style="fill:none;fill-rule:nonzero;stroke:#2d2dbd;stroke-width:0.83px;"/>
    <path d="M6.515,11.235L7.13,10.979" style="fill:none;fill-rule:nonzero;stroke:#2d2dbd;stroke-width:0.83px;"/>
    <path d="M6.515,12.765L7.13,13.021" style="fill:none;fill-rule:nonzero;stroke:#2d2dbd;stroke-width:0.83px;"/>
    <circle cx="4.667" cy="12" r="2" style="fill:none;stroke:#2d2dbd;stroke-width:0.83px;"/>
</svg>
