<?xml version="1.0" encoding="UTF-8" standalone="no"?>
<!DOCTYPE svg PUBLIC "-//W3C//DTD SVG 1.1//EN" "http://www.w3.org/Graphics/SVG/1.1/DTD/svg11.dtd">
<svg width="100%" height="100%" viewBox="0 0 16 16" version="1.1" xmlns="http://www.w3.org/2000/svg" xmlns:xlink="http://www.w3.org/1999/xlink" xml:space="preserve" xmlns:serif="http://www.serif.com/" style="fill-rule:evenodd;clip-rule:evenodd;stroke-linejoin:round;stroke-miterlimit:2;">
    <path d="M8,1.333C11.68,1.333 14.667,4.32 14.667,8C14.667,11.68 11.68,14.667 8,14.667C4.32,14.667 1.333,11.68 1.333,8C1.333,4.32 4.32,1.333 8,1.333ZM8.941,11.007L8.941,7.66C8.941,7.141 8.519,6.719 8,6.719C7.481,6.719 7.059,7.141 7.059,7.66L7.059,11.007C7.059,11.526 7.481,11.948 8,11.948C8.519,11.948 8.941,11.526 8.941,11.007ZM8.007,3.857C7.5,3.857 7.089,4.268 7.089,4.775C7.089,5.282 7.5,5.693 8.007,5.693C8.514,5.693 8.925,5.282 8.925,4.775C8.925,4.268 8.514,3.857 8.007,3.857Z"/>
</svg>
