<?xml version="1.0" encoding="UTF-8" standalone="no"?>
<!DOCTYPE svg PUBLIC "-//W3C//DTD SVG 1.1//EN" "http://www.w3.org/Graphics/SVG/1.1/DTD/svg11.dtd">
<svg width="100%" height="100%" viewBox="0 0 16 16" version="1.1" xmlns="http://www.w3.org/2000/svg" xmlns:xlink="http://www.w3.org/1999/xlink" xml:space="preserve" xmlns:serif="http://www.serif.com/" style="fill-rule:evenodd;clip-rule:evenodd;stroke-linecap:round;stroke-linejoin:round;">
    <path d="M0.747,9.395L0.747,12.069C0.747,13.173 1.643,14.069 2.747,14.069L9.669,14.069C10.773,14.069 11.669,13.173 11.669,12.069L11.669,9.395C11.669,8.291 10.773,7.395 9.669,7.395L2.747,7.395C1.643,7.395 0.747,8.291 0.747,9.395Z" style="fill:none;stroke:#000;stroke-width:0.76px;"/>
    <path d="M9.242,7.395L9.242,4.968C9.242,4.967 9.242,4.966 9.242,4.965C9.242,3.3 10.612,1.931 12.276,1.931C13.713,1.931 15.224,3.166 15.249,4.672C15.257,5.158 15.236,5.446 15.236,5.446" style="fill:none;fill-rule:nonzero;stroke:#000;stroke-width:0.76px;"/>
</svg>
