<?xml version="1.0" encoding="UTF-8" standalone="no"?>
<!DOCTYPE svg PUBLIC "-//W3C//DTD SVG 1.1//EN" "http://www.w3.org/Graphics/SVG/1.1/DTD/svg11.dtd">
<svg width="100%" height="100%" viewBox="0 0 16 16" version="1.1" xmlns="http://www.w3.org/2000/svg" xmlns:xlink="http://www.w3.org/1999/xlink" xml:space="preserve" xmlns:serif="http://www.serif.com/" style="fill-rule:evenodd;clip-rule:evenodd;stroke-linejoin:round;stroke-miterlimit:2;">
    <g transform="matrix(0.666667,0,0,0.666667,0,0)">
        <path d="M15.974,19.026L19.717,15.281C21.175,13.823 21.995,11.843 21.995,9.782C21.995,5.515 18.483,2.003 14.217,2.003C12.154,2.003 10.174,2.824 8.716,4.282L4.999,8L9,12L12.381,8.619C12.779,8.221 13.319,7.998 13.881,7.998C15.045,7.998 16.002,8.955 16.002,10.119C16.002,10.681 15.779,11.221 15.381,11.619L12,15L15.974,19.026Z" style="fill:rgb(232,107,85);fill-rule:nonzero;"/>
    </g>
    <g transform="matrix(0.666667,0,0,0.666667,0,0)">
        <path d="M4.999,8L2.352,10.648C1.885,11.115 1.885,11.885 2.352,12.352L4.648,14.648C5.115,15.115 5.885,15.115 6.352,14.648L9.001,11.999L4.999,8Z" style="fill:rgb(225,227,226);fill-rule:nonzero;"/>
    </g>
    <g transform="matrix(0.666667,0,0,0.666667,0,0)">
        <path d="M12,15L9.352,17.648C8.885,18.115 8.885,18.885 9.352,19.352L11.648,21.648C12.115,22.115 12.885,22.115 13.352,21.648L15.974,19.026L12,15Z" style="fill:rgb(225,227,226);fill-rule:nonzero;"/>
    </g>
</svg>
