<?xml version="1.0" encoding="UTF-8" standalone="no"?>
<!DOCTYPE svg PUBLIC "-//W3C//DTD SVG 1.1//EN" "http://www.w3.org/Graphics/SVG/1.1/DTD/svg11.dtd">
<svg width="100%" height="100%" viewBox="0 0 16 16" version="1.1" xmlns="http://www.w3.org/2000/svg" xmlns:xlink="http://www.w3.org/1999/xlink" xml:space="preserve" xmlns:serif="http://www.serif.com/" style="fill-rule:evenodd;clip-rule:evenodd;stroke-linecap:round;stroke-linejoin:round;">
    <g transform="matrix(0.666667,0,0,0.666667,0,0)">
        <path d="M12,3L5,3C3.903,3 3,3.903 3,5L3,19C3,20.097 3.903,21 5,21L19,21C20.097,21 21,20.097 21,19L21,12" style="fill:none;fill-rule:nonzero;stroke:black;stroke-width:1.25px;"/>
    </g>
    <g transform="matrix(0.666667,0,0,0.666667,0,0)">
        <path d="M14,15L9,15L9,10" style="fill:none;fill-rule:nonzero;stroke:rgb(45,45,189);stroke-width:1.5px;"/>
    </g>
    <g transform="matrix(0.666667,0,0,0.666667,0,0)">
        <path d="M16,3L21,3L21,8" style="fill:none;fill-rule:nonzero;stroke:rgb(45,45,189);stroke-width:1.5px;"/>
    </g>
    <g transform="matrix(0.666667,0,0,0.666667,0,0)">
        <path d="M21,3L9,15" style="fill:none;fill-rule:nonzero;stroke:rgb(45,45,189);stroke-width:1.5px;"/>
    </g>
</svg>
