<?xml version="1.0" encoding="UTF-8" standalone="no"?>
<!DOCTYPE svg PUBLIC "-//W3C//DTD SVG 1.1//EN" "http://www.w3.org/Graphics/SVG/1.1/DTD/svg11.dtd">
<svg width="100%" height="100%" viewBox="0 0 16 16" version="1.1" xmlns="http://www.w3.org/2000/svg" xmlns:xlink="http://www.w3.org/1999/xlink" xml:space="preserve" xmlns:serif="http://www.serif.com/" style="fill-rule:evenodd;clip-rule:evenodd;stroke-linecap:round;stroke-linejoin:round;">
    <path d="M14.487,12L9.153,2.667C8.917,2.249 8.473,1.991 7.993,1.991C7.514,1.991 7.07,2.249 6.833,2.667L1.5,12C1.383,12.203 1.321,12.433 1.321,12.667C1.321,13.398 1.923,14 2.655,14C2.659,14 2.663,14 2.667,14L13.333,14C14.064,13.999 14.665,13.398 14.665,12.667C14.665,12.433 14.604,12.203 14.487,12" style="fill:none;fill-rule:nonzero;stroke:#000;stroke-width:0.83px;"/>
    <path d="M8,6L8,8.667" style="fill:none;fill-rule:nonzero;stroke:#000;stroke-width:1px;"/>
    <path d="M8,11.333L8.007,11.333" style="fill:none;fill-rule:nonzero;stroke:#000;stroke-width:1px;"/>
</svg>
