<?xml version="1.0" encoding="UTF-8" standalone="no"?>
<!DOCTYPE svg PUBLIC "-//W3C//DTD SVG 1.1//EN" "http://www.w3.org/Graphics/SVG/1.1/DTD/svg11.dtd">
<svg width="100%" height="100%" viewBox="0 0 16 16" version="1.1" xmlns="http://www.w3.org/2000/svg" xmlns:xlink="http://www.w3.org/1999/xlink" xml:space="preserve" xmlns:serif="http://www.serif.com/" style="fill-rule:evenodd;clip-rule:evenodd;stroke-linejoin:round;stroke-miterlimit:2;">
    <path d="M14.487,12C14.604,12.203 14.665,12.433 14.665,12.667C14.665,13.398 14.064,13.999 13.333,14L2.655,14C1.923,14 1.321,13.398 1.321,12.667C1.321,12.433 1.383,12.203 1.5,12L6.833,2.667C7.07,2.249 7.514,1.991 7.993,1.991C8.473,1.991 8.917,2.249 9.153,2.667L14.487,12ZM7.365,5.64L7.365,9.027C7.365,9.378 7.649,9.662 8,9.662C8.351,9.662 8.635,9.378 8.635,9.027L8.635,5.64C8.635,5.289 8.351,5.005 8,5.005C7.649,5.005 7.365,5.289 7.365,5.64ZM7.993,10.677C7.63,10.677 7.337,10.97 7.337,11.333C7.337,11.696 7.63,11.989 7.993,11.989C8.356,11.989 8.649,11.696 8.649,11.333C8.649,10.97 8.356,10.677 7.993,10.677Z"/>
</svg>
