<?xml version="1.0" standalone="no"?>
<!DOCTYPE svg PUBLIC "-//W3C//DTD SVG 20010904//EN"
 "http://www.w3.org/TR/2001/REC-SVG-20010904/DTD/svg10.dtd">
<svg version="1.0" xmlns="http://www.w3.org/2000/svg"
 width="1280.000000pt" height="928.000000pt" viewBox="0 0 1280.000000 928.000000"
 preserveAspectRatio="xMidYMid meet">
<metadata>
Created by potrace 1.15, written by Peter Selinger 2001-2017
</metadata>
<g transform="translate(0.000000,928.000000) scale(0.100000,-0.100000)"
fill="#000000" stroke="none" id="banana">
<path d="M11385 9265 c-188 -26 -385 -83 -549 -156 -405 -182 -535 -473 -328
-736 38 -48 41 -57 66 -199 80 -467 66 -898 -40 -1252 -76 -250 -344 -755
-581 -1094 -805 -1150 -1892 -1741 -3573 -1942 -560 -67 -954 -89 -2030 -110
-937 -19 -1153 -25 -1430 -36 -944 -40 -1708 -134 -2345 -286 -169 -41 -236
-71 -319 -146 -238 -212 -312 -573 -210 -1028 14 -63 33 -128 42 -145 73 -142
988 -1160 1132 -1260 39 -27 255 -105 585 -211 994 -321 2013 -536 2935 -618
358 -32 549 -40 970 -40 521 0 795 17 1265 80 2132 284 3953 1371 5019 2996
535 817 831 1732 802 2483 -9 242 -34 393 -100 615 -19 63 -43 155 -52 204
-56 289 -319 551 -669 666 -79 26 -80 28 -107 81 -58 113 -105 416 -127 814
-22 399 -33 664 -26 684 3 12 53 59 110 106 57 47 115 99 128 115 64 75 73
184 23 260 -31 47 -143 125 -212 147 -68 21 -258 25 -379 8z"/>
</g>
</svg>
